<svg xmlns="http://www.w3.org/2000/svg" width="300" height="75" viewBox="0 0 300 75" version="1.1"><path d="M 63 0.567 L 63 1.133 65.750 4.739 L 68.500 8.344 68.500 14.500 L 68.500 20.656 65.649 24.394 L 62.798 28.131 63.256 28.589 L 63.714 29.047 65.107 28.508 L 66.500 27.969 68.983 24.332 L 71.466 20.696 71.483 14.529 L 71.500 8.362 68.736 4.181 L 65.972 0 64.486 0 L 63 0 63 0.567 M 58.658 4.676 L 57.982 5.352 60.241 7.756 L 62.500 10.161 62.500 14.500 L 62.500 18.839 60.175 21.314 L 57.850 23.789 59.090 24.556 L 60.331 25.323 62.570 22.515 L 64.809 19.707 65.350 17.002 L 65.891 14.297 65.293 11.899 L 64.696 9.500 62.780 6.750 L 60.864 4 60.099 4 L 59.333 4 58.658 4.676 M 54.702 7.631 L 54.070 8.263 55.131 10.245 L 56.192 12.228 55.756 15.364 L 55.320 18.500 54.910 19.875 L 54.500 21.250 55.691 21.689 L 56.882 22.127 58.061 18.192 L 59.240 14.256 58.042 10.628 L 56.845 7 56.089 7 L 55.333 7 54.702 7.631 M 6 10.500 L 6 12 8 12 L 10 12 10 18 L 10 24 11.500 24 L 13 24 13 18 L 13 12 15 12 L 17 12 17 10.500 L 17 9 11.500 9 L 6 9 6 10.500 M 19 16.500 L 19 24 20.500 24 L 22 24 22 20.437 L 22 16.873 25.250 17.187 L 28.500 17.500 28.813 20.750 L 29.127 24 29.984 24 L 30.842 24 31.171 16.498 L 31.500 8.995 30.250 8.998 L 29 9 29 12 L 29 15 25.500 15 L 22 15 22 12 L 22 9 20.500 9 L 19 9 19 16.500 M 35 16.500 L 35 24 40.500 24 L 46 24 46 22.500 L 46 21 41.427 21 L 36.853 21 37.204 19.250 L 37.555 17.500 40.277 17.539 L 43 17.579 43 16.289 L 43 15 40 15 L 37 15 37 13.500 L 37 12 41.500 12 L 46 12 46 10.500 L 46 9 40.500 9 L 35 9 35 16.500 M 43.500 38.944 L 33.500 39.500 34.750 40.309 L 36 41.118 36 51.359 L 36 61.600 34.867 62.733 L 33.734 63.866 44.369 64.183 L 55.004 64.500 55.004 61.500 L 55.005 58.500 47.428 58.832 L 39.851 59.163 40.176 56.332 L 40.500 53.500 45.250 53.563 L 50 53.626 50.001 51.063 L 50.001 48.500 45.001 48.847 L 40 49.193 40 46.514 L 40 43.836 47.002 44.168 L 54.005 44.500 54.002 41.250 L 54 38 53.750 38.194 L 53.500 38.387 43.500 38.944 M 98.270 38.715 L 96.040 39.134 94.020 41.702 L 92 44.270 92 46.680 L 92 49.091 94.455 51.545 L 96.909 54 99.705 54.014 L 102.500 54.027 104.750 54.630 L 107 55.233 107 56.581 L 107 57.930 105.066 58.965 L 103.131 60 101.316 59.994 L 99.500 59.988 96.601 58.476 L 93.702 56.964 93.475 57.232 L 93.248 57.500 92.592 59.641 L 91.935 61.782 95.117 62.891 L 98.298 64 102.538 64 L 106.778 64 108.886 62.250 L 110.994 60.500 111.575 57.484 L 112.156 54.468 110.060 51.804 L 107.965 49.139 102.469 48.453 L 96.974 47.766 96.401 46.839 L 95.828 45.912 97.036 44.456 L 98.245 43 101.400 43 L 104.555 43 106.842 44.602 L 109.129 46.204 109.440 45.852 L 109.752 45.500 110.379 43.452 L 111.007 41.404 107.753 40.289 L 104.500 39.174 102.500 38.736 L 100.500 38.297 98.270 38.715 M 131.313 39.113 L 128.126 40.025 126.089 42.614 L 124.053 45.203 123.397 48.698 L 122.741 52.193 123.895 56.043 L 125.048 59.893 127.659 61.946 L 130.270 64 134.735 64 L 139.200 64 142.600 60.600 L 146 57.200 146 52.050 L 146 46.901 144.585 44.165 L 143.171 41.429 140.835 40.277 L 138.500 39.126 136.500 38.663 L 134.500 38.201 131.313 39.113 M 173 41.526 L 173 44.553 177.097 44.162 L 181.195 43.771 180.847 53.887 L 180.500 64.002 183.500 64.003 L 186.500 64.004 186.184 54.002 L 185.867 44 189.434 44 L 193 44 193 41.250 L 193 38.500 183 38.500 L 173 38.500 173 41.526 M 225 38.677 L 223.500 39.146 221.165 40.288 L 218.829 41.429 217.415 44.165 L 216 46.901 216 52.050 L 216 57.200 219.400 60.600 L 222.800 64 227.477 64 L 232.154 64 235.003 61.150 L 237.853 58.301 238.576 54.448 L 239.299 50.595 237.899 46.638 L 236.500 42.681 234 40.939 L 231.500 39.196 229 38.702 L 226.500 38.208 225 38.677 M 249.643 39.053 L 246.785 39.885 244.888 41.601 L 242.992 43.318 241.901 47.369 L 240.810 51.421 241.980 55.328 L 243.151 59.235 245.721 61.618 L 248.292 64 253.069 64 L 257.846 64 260.833 61.013 L 263.820 58.026 264.459 54.242 L 265.098 50.458 263.799 46.575 L 262.500 42.691 260 40.944 L 257.500 39.196 255 38.709 L 252.500 38.221 249.643 39.053 M 7.500 51.500 L 7.500 64 10.500 64.002 L 13.500 64.005 13.168 55.820 L 12.836 47.635 18.418 54.445 L 24 61.254 24 62.627 L 24 64 27.250 64 L 30.500 64 30.500 51.500 L 30.500 39 27.500 38.998 L 24.500 38.995 24.836 46.748 L 25.173 54.500 24.678 54 L 24.183 53.500 19.103 47.136 L 14.022 40.773 14.570 39.886 L 15.118 39 11.309 39 L 7.500 39 7.500 51.500 M 56.771 40.250 L 57.787 41.500 60.942 51.767 L 64.097 62.035 63.489 63.017 L 62.882 64 66.410 64 L 69.937 64 69.454 62.740 L 68.970 61.479 71.373 54.490 L 73.777 47.500 74.311 49 L 74.845 50.500 76.515 55.787 L 78.185 61.074 77.624 62.537 L 77.063 64 80.938 64 L 84.813 64 84.328 62.147 L 83.844 60.294 86.566 51.397 L 89.288 42.500 90.144 41.550 L 91 40.600 91 39.800 L 91 39 87.512 39 L 84.024 39 84.252 40.750 L 84.481 42.500 83.051 47.750 L 81.622 53 81.061 52.999 L 80.500 52.997 78.722 46.948 L 76.945 40.899 77.531 39.949 L 78.118 39 73.359 39 L 68.600 39 69.700 40.100 L 70.801 41.201 68.724 47.350 L 66.647 53.500 65.162 50 L 63.677 46.500 63.589 42.753 L 63.500 39.006 59.628 39.003 L 55.755 39 56.771 40.250 M 150.020 49.604 L 150.541 60.210 152.881 62.105 L 155.222 64 160.611 64 L 166 64 168 62 L 170 60 170 51.082 L 170 42.164 170.607 40.582 L 171.214 39 168.357 38.998 L 165.500 38.995 165.816 47.820 L 166.133 56.645 164.563 57.947 L 162.994 59.250 160.500 59.250 L 158.006 59.250 156.437 57.947 L 154.867 56.645 155.184 47.820 L 155.500 38.995 152.500 38.996 L 149.500 38.997 150.020 49.604 M 195.500 51.437 L 195.500 63.874 204.752 64.187 L 214.004 64.500 214.004 61.500 L 214.004 58.500 207.434 58.838 L 200.863 59.177 201.182 49.086 L 201.500 38.996 198.500 38.998 L 195.500 39 195.500 51.437 M 268.500 51.500 L 268.500 64 271.507 64 L 274.514 64 274.172 59.693 L 273.829 55.387 275.239 54.217 L 276.648 53.047 279.846 57.584 L 283.044 62.120 282.463 63.060 L 281.882 64 286.628 64 L 291.374 64 288.860 61.250 L 286.347 58.500 283.164 54.041 L 279.982 49.581 285.207 44.291 L 290.432 39 285.747 39 L 281.063 39 281.553 40.276 L 282.042 41.553 277.929 45.526 L 273.816 49.500 274.158 44.249 L 274.500 38.999 271.500 38.999 L 268.500 39 268.500 51.500 M 130.333 45.576 L 127.757 48.152 128.302 52.214 L 128.847 56.275 130.334 57.763 L 131.821 59.250 134.508 59.250 L 137.194 59.250 139.160 57.285 L 141.125 55.320 141.208 52.405 L 141.290 49.490 140.626 47.397 L 139.962 45.304 137.434 44.152 L 134.906 43 133.907 43 L 132.909 43 130.333 45.576 M 223 45 L 221 47 220.885 49.250 L 220.770 51.500 220.964 53.500 L 221.158 55.500 222.982 57.375 L 224.806 59.250 227.492 59.250 L 230.179 59.250 231.666 57.763 L 233.153 56.275 233.698 52.214 L 234.243 48.152 231.667 45.576 L 229.091 43 227.045 43 L 225 43 223 45 M 249.025 44.975 L 247.051 46.949 246.412 49.494 L 245.773 52.039 247.013 55.032 L 248.253 58.025 250.627 58.621 L 253 59.217 255.373 58.621 L 257.747 58.025 258.967 55.079 L 260.188 52.132 259.515 49.067 L 258.842 46.002 256.698 44.501 L 254.555 43 252.777 43 L 251 43 249.025 44.975" stroke="none" fill="#f9eee4" fill-rule="evenodd"/><path d="M -0 36.503 L -0 72.006 150.250 71.753 L 300.500 71.500 300.534 35.500 L 300.567 -0.500 300.260 15 L 299.952 30.500 176.476 30.242 L 53 29.984 53 15.492 L 53 1 26.500 1 L 0 1 -0 36.503 M 0.451 36.500 L 0.451 72.500 0.748 54.815 L 1.046 37.130 0.749 18.815 L 0.452 0.500 0.451 36.500 M 6 10.500 L 6 12 8 12 L 10 12 10 18 L 10 24 11.500 24 L 13 24 13 18 L 13 12 15 12 L 17 12 17 10.500 L 17 9 11.500 9 L 6 9 6 10.500 M 19 16.500 L 19 24 20.500 24 L 22 24 22 20.437 L 22 16.873 25.250 17.187 L 28.500 17.500 28.813 20.750 L 29.127 24 29.984 24 L 30.842 24 31.171 16.498 L 31.500 8.995 30.250 8.998 L 29 9 29 12 L 29 15 25.500 15 L 22 15 22 12 L 22 9 20.500 9 L 19 9 19 16.500 M 35 16.500 L 35 24 40.500 24 L 46 24 46 22.500 L 46 21 41.427 21 L 36.853 21 37.204 19.250 L 37.555 17.500 40.277 17.539 L 43 17.579 43 16.289 L 43 15 40 15 L 37 15 37 13.500 L 37 12 41.500 12 L 46 12 46 10.500 L 46 9 40.500 9 L 35 9 35 16.500 M 43.500 38.944 L 33.500 39.500 34.750 40.309 L 36 41.118 36 51.359 L 36 61.600 34.867 62.733 L 33.734 63.866 44.369 64.183 L 55.004 64.500 55.004 61.500 L 55.005 58.500 47.428 58.832 L 39.851 59.163 40.176 56.332 L 40.500 53.500 45.250 53.563 L 50 53.626 50.001 51.063 L 50.001 48.500 45.001 48.847 L 40 49.193 40 46.514 L 40 43.836 47.002 44.168 L 54.005 44.500 54.002 41.250 L 54 38 53.750 38.194 L 53.500 38.387 43.500 38.944 M 98.270 38.715 L 96.040 39.134 94.020 41.702 L 92 44.270 92 46.680 L 92 49.091 94.455 51.545 L 96.909 54 99.705 54.014 L 102.500 54.027 104.750 54.630 L 107 55.233 107 56.581 L 107 57.930 105.066 58.965 L 103.131 60 101.316 59.994 L 99.500 59.988 96.601 58.476 L 93.702 56.964 93.475 57.232 L 93.248 57.500 92.592 59.641 L 91.935 61.782 95.117 62.891 L 98.298 64 102.538 64 L 106.778 64 108.886 62.250 L 110.994 60.500 111.575 57.484 L 112.156 54.468 110.060 51.804 L 107.965 49.139 102.469 48.453 L 96.974 47.766 96.401 46.839 L 95.828 45.912 97.036 44.456 L 98.245 43 101.400 43 L 104.555 43 106.842 44.602 L 109.129 46.204 109.440 45.852 L 109.752 45.500 110.379 43.452 L 111.007 41.404 107.753 40.289 L 104.500 39.174 102.500 38.736 L 100.500 38.297 98.270 38.715 M 131.313 39.113 L 128.126 40.025 126.089 42.614 L 124.053 45.203 123.397 48.698 L 122.741 52.193 123.895 56.043 L 125.048 59.893 127.659 61.946 L 130.270 64 134.735 64 L 139.200 64 142.600 60.600 L 146 57.200 146 52.050 L 146 46.901 144.585 44.165 L 143.171 41.429 140.835 40.277 L 138.500 39.126 136.500 38.663 L 134.500 38.201 131.313 39.113 M 173 41.526 L 173 44.553 177.097 44.162 L 181.195 43.771 180.847 53.887 L 180.500 64.002 183.500 64.003 L 186.500 64.004 186.184 54.002 L 185.867 44 189.434 44 L 193 44 193 41.250 L 193 38.500 183 38.500 L 173 38.500 173 41.526 M 225 38.677 L 223.500 39.146 221.165 40.288 L 218.829 41.429 217.415 44.165 L 216 46.901 216 52.050 L 216 57.200 219.400 60.600 L 222.800 64 227.477 64 L 232.154 64 235.003 61.150 L 237.853 58.301 238.576 54.448 L 239.299 50.595 237.899 46.638 L 236.500 42.681 234 40.939 L 231.500 39.196 229 38.702 L 226.500 38.208 225 38.677 M 249.643 39.053 L 246.785 39.885 244.888 41.601 L 242.992 43.318 241.901 47.369 L 240.810 51.421 241.980 55.328 L 243.151 59.235 245.721 61.618 L 248.292 64 253.069 64 L 257.846 64 260.833 61.013 L 263.820 58.026 264.459 54.242 L 265.098 50.458 263.799 46.575 L 262.500 42.691 260 40.944 L 257.500 39.196 255 38.709 L 252.500 38.221 249.643 39.053 M 7.500 51.500 L 7.500 64 10.500 64.002 L 13.500 64.005 13.168 55.820 L 12.836 47.635 18.418 54.445 L 24 61.254 24 62.627 L 24 64 27.250 64 L 30.500 64 30.500 51.500 L 30.500 39 27.500 38.998 L 24.500 38.995 24.836 46.748 L 25.173 54.500 24.678 54 L 24.183 53.500 19.103 47.136 L 14.022 40.773 14.570 39.886 L 15.118 39 11.309 39 L 7.500 39 7.500 51.500 M 56.771 40.250 L 57.787 41.500 60.942 51.767 L 64.097 62.035 63.489 63.017 L 62.882 64 66.410 64 L 69.937 64 69.454 62.740 L 68.970 61.479 71.373 54.490 L 73.777 47.500 74.311 49 L 74.845 50.500 76.515 55.787 L 78.185 61.074 77.624 62.537 L 77.063 64 80.938 64 L 84.813 64 84.328 62.147 L 83.844 60.294 86.566 51.397 L 89.288 42.500 90.144 41.550 L 91 40.600 91 39.800 L 91 39 87.512 39 L 84.024 39 84.252 40.750 L 84.481 42.500 83.051 47.750 L 81.622 53 81.061 52.999 L 80.500 52.997 78.722 46.948 L 76.945 40.899 77.531 39.949 L 78.118 39 73.359 39 L 68.600 39 69.700 40.100 L 70.801 41.201 68.724 47.350 L 66.647 53.500 65.162 50 L 63.677 46.500 63.589 42.753 L 63.500 39.006 59.628 39.003 L 55.755 39 56.771 40.250 M 150.020 49.604 L 150.541 60.210 152.881 62.105 L 155.222 64 160.611 64 L 166 64 168 62 L 170 60 170 51.082 L 170 42.164 170.607 40.582 L 171.214 39 168.357 38.998 L 165.500 38.995 165.816 47.820 L 166.133 56.645 164.563 57.947 L 162.994 59.250 160.500 59.250 L 158.006 59.250 156.437 57.947 L 154.867 56.645 155.184 47.820 L 155.500 38.995 152.500 38.996 L 149.500 38.997 150.020 49.604 M 195.500 51.437 L 195.500 63.874 204.752 64.187 L 214.004 64.500 214.004 61.500 L 214.004 58.500 207.434 58.838 L 200.863 59.177 201.182 49.086 L 201.500 38.996 198.500 38.998 L 195.500 39 195.500 51.437 M 268.500 51.500 L 268.500 64 271.507 64 L 274.514 64 274.172 59.693 L 273.829 55.387 275.239 54.217 L 276.648 53.047 279.846 57.584 L 283.044 62.120 282.463 63.060 L 281.882 64 286.628 64 L 291.374 64 288.860 61.250 L 286.347 58.500 283.164 54.041 L 279.982 49.581 285.207 44.291 L 290.432 39 285.747 39 L 281.063 39 281.553 40.276 L 282.042 41.553 277.929 45.526 L 273.816 49.500 274.158 44.249 L 274.500 38.999 271.500 38.999 L 268.500 39 268.500 51.500 M 130.333 45.576 L 127.757 48.152 128.302 52.214 L 128.847 56.275 130.334 57.763 L 131.821 59.250 134.508 59.250 L 137.194 59.250 139.160 57.285 L 141.125 55.320 141.208 52.405 L 141.290 49.490 140.626 47.397 L 139.962 45.304 137.434 44.152 L 134.906 43 133.907 43 L 132.909 43 130.333 45.576 M 223 45 L 221 47 220.885 49.250 L 220.770 51.500 220.964 53.500 L 221.158 55.500 222.982 57.375 L 224.806 59.250 227.492 59.250 L 230.179 59.250 231.666 57.763 L 233.153 56.275 233.698 52.214 L 234.243 48.152 231.667 45.576 L 229.091 43 227.045 43 L 225 43 223 45 M 249.025 44.975 L 247.051 46.949 246.412 49.494 L 245.773 52.039 247.013 55.032 L 248.253 58.025 250.627 58.621 L 253 59.217 255.373 58.621 L 257.747 58.025 258.967 55.079 L 260.188 52.132 259.515 49.067 L 258.842 46.002 256.698 44.501 L 254.555 43 252.777 43 L 251 43 249.025 44.975" stroke="none" fill="#ec222a" fill-rule="evenodd"/></svg>